# xmcd
#
# Track frame offsets: 
#        150
#        35764
#        64087
#        84139
#        113284
#        141487
#        161843
#
# Disc length: 2587 seconds
#
# Revision: 0
# Processed by: cddbd v1.5.2PL0 Copyright (c) Steve Scherf et al.
# Submitted via: ExactAudioCopyFreeDBPlugin 1.0
#
DISCID=560a1907
DTITLE=sakuragawa yuriko - 桜川百合子, kubota makoto - 久保田麻琴 - 久保田麻琴レア・ミックス
DTITLE=江州音頭 桜川百合子
DYEAR=2012
DGENRE=Crossover
TTITLE0=千両幟 VooDoo Ciranda
TTITLE1=千両幟 Massive Gollywood Mix
TTITLE2=千両幟 80's Funk Stylee
TTITLE3=VooDoo Ciranda (inst.)
TTITLE4=Massive Gollywood (inst.)
TTITLE5=80' Funk Stylee (inst.)
TTITLE6=千両幟 Original Recording
EXTD=
EXTT0=
EXTT1=
EXTT2=
EXTT3=
EXTT4=
EXTT5=
EXTT6=
PLAYORDER=
